HIERARCHY
ROOT Hips
{
	OFFSET 0.000000 0.000000 0.000000 
	CHANNELS 6 Xposition Yposition Zposition Zrotation Yrotation Xrotation
	JOINT LeftUpLeg
	{
		OFFSET 1.363060 -1.794630 0.839290 
		CHANNELS 3 Zrotation Yrotation Xrotation
		JOINT LeftLeg
		{
			OFFSET 2.448110 -6.726130 0.000000 
			CHANNELS 3 Zrotation Yrotation Xrotation
			JOINT LeftFoot
			{
				OFFSET 2.562200 -7.039590 0.000000 
				CHANNELS 3 Zrotation Yrotation Xrotation
				JOINT LeftToeBase
				{
					OFFSET 0.157640 -0.433110 2.322550 
					CHANNELS 3 Zrotation Yrotation Xrotation
					End Site
					{
						OFFSET 0.000000 0.000000 0.000000 
					}
				}
			}
		}
	}
	JOINT RightUpLeg
	{
		OFFSET -1.305520 -1.794630 0.839290 
		CHANNELS 3 Zrotation Yrotation Xrotation
		JOINT RightLeg
		{
			OFFSET -2.542530 -6.985550 0.000000 
			CHANNELS 3 Zrotation Yrotation Xrotation
			JOINT RightFoot
			{
				OFFSET -2.568260 -7.056230 0.000000 
				CHANNELS 3 Zrotation Yrotation Xrotation
				JOINT RightToeBase
				{
					OFFSET -0.164730 -0.452590 2.363150 
					CHANNELS 3 Zrotation Yrotation Xrotation
					End Site
					{
						OFFSET 0.000000 0.000000 0.000000 
					}
				}
			}
		}
	}
	JOINT Spine
	{
		OFFSET 0.028270 2.035590 -0.193380 
		CHANNELS 3 Zrotation Yrotation Xrotation
		JOINT Spine1
		{
			OFFSET 0.056720 2.048850 -0.042750 
			CHANNELS 3 Zrotation Yrotation Xrotation
			JOINT Neck1
			{
				OFFSET -0.054170 1.746240 0.172020 
				CHANNELS 3 Zrotation Yrotation Xrotation
				JOINT Head
				{
					OFFSET 0.104070 1.761360 -0.123970 
					CHANNELS 3 Zrotation Yrotation Xrotation
					End Site
					{
						OFFSET 0.000000 0.000000 0.000000 
					}
				}
			}
			JOINT LeftArm
			{
				OFFSET 3.362410 1.200890 -0.311210 
				CHANNELS 3 Zrotation Yrotation Xrotation
				JOINT LeftForeArm
				{
					OFFSET 4.983000 -0.000000 -0.000000 
					CHANNELS 3 Zrotation Yrotation Xrotation
					JOINT LeftHand
					{
						OFFSET 3.483560 -0.000000 -0.000000 
						CHANNELS 3 Zrotation Yrotation Xrotation
						JOINT LeftHandIndex1
						{
							OFFSET 0.715260 -0.000000 -0.000000 
							CHANNELS 3 Zrotation Yrotation Xrotation
							End Site
							{
								OFFSET 0.000000 0.000000 0.000000 
							}
						}
					}
				}
			}
			JOINT RightArm
			{
				OFFSET -3.136600 1.374050 -0.404650 
				CHANNELS 3 Zrotation Yrotation Xrotation
				JOINT RightForeArm
				{
					OFFSET -5.241900 -0.000000 -0.000000 
					CHANNELS 3 Zrotation Yrotation Xrotation
					JOINT RightHand
					{
						OFFSET -3.444170 -0.000000 -0.000000 
						CHANNELS 3 Zrotation Yrotation Xrotation
						JOINT RightHandIndex1
						{
							OFFSET -0.622530 -0.000000 -0.000000 
							CHANNELS 3 Zrotation Yrotation Xrotation
							End Site
							{
								OFFSET 0.000000 0.000000 0.000000 
							}
						}
					}
				}
			}
		}
	}
}
MOTION
Frames: 7
Frame Time: 0.041667
22.443708 11.664943 1.323032 138.640936 -69.224524 -114.946636 -73.362003 -48.970355 -30.054429 19.502633 16.391612 78.353222 9.601997 17.603449 -66.624361 0.000000 -0.006100 -0.016600 -1.234391 63.166816 -107.358276 -19.309178 -1.781347 86.757200 -9.810571 -6.323377 -56.122702 -0.431600 4.215900 -11.684800 -67.902655 27.348008 46.986786 28.224639 11.045079 -16.658371 7.326131 7.660263 -71.425033 1.533200 0.819500 -4.109400 -128.699766 -3.269087 -104.150341 24.811505 -54.572661 -4.561762 12.842501 -1.711399 110.890061 -7.125000 0.000000 0.000000 126.373549 -12.534188 -25.731439 -52.793756 55.196647 -2.340719 0.522054 -2.721470 18.248300 7.125000 0.000000 0.000000 
22.499023 11.708092 1.326432 139.756919 -69.084797 -116.083254 -73.295487 -49.251199 -30.142313 19.414122 16.285014 78.034969 9.556772 17.116407 -66.595883 0.008200 0.586500 1.611600 -0.655897 62.423791 -106.415443 -19.227012 -2.403712 88.994768 -9.143601 -5.933245 -57.102166 -0.138700 2.400400 -6.613600 -69.812362 27.006133 44.942108 28.545612 10.842940 -16.391157 7.664563 7.867858 -71.541523 1.528600 0.793900 -4.270900 -128.143055 -3.241072 -108.967740 24.575742 -54.648066 -4.490346 12.379094 -2.627029 115.016009 -7.125000 0.000000 0.000000 126.323648 -12.911952 -25.329013 -53.181731 55.206503 -2.487370 0.558173 -3.025273 17.446932 7.125000 0.000000 0.000000 
22.549351 11.736505 1.328322 141.091519 -69.325573 -117.871459 -73.217389 -49.560253 -30.018367 19.274568 16.223181 77.796778 9.439464 16.323162 -66.721548 0.067500 1.676700 4.613000 0.122269 61.867798 -105.228696 -19.253080 -3.119357 91.061817 -8.765794 -6.146740 -57.234629 -0.117200 2.207400 -6.079200 -68.569594 27.312026 46.406650 27.967504 11.034288 -17.203724 7.950923 8.029361 -71.435680 1.584200 0.785800 -4.311000 -127.365808 -3.430297 -115.366286 24.400402 -55.038046 -4.103221 10.909176 -3.643636 121.320495 -7.125000 0.000000 0.000000 125.969639 -13.180487 -24.544359 -53.581078 55.162888 -2.617006 0.548118 -3.199773 16.558360 7.125000 0.000000 0.000000 
22.595749 11.759704 1.327188 142.738555 -69.821731 -120.030975 -73.047354 -49.912693 -29.926555 19.202227 16.205483 77.577547 9.395985 16.035787 -66.741172 0.139600 2.407700 6.633900 1.077762 61.441210 -103.874930 -19.407443 -3.848800 92.971307 -8.610547 -6.859237 -56.998237 -0.078600 1.808100 -4.975700 -66.113728 27.684743 48.986216 27.261659 11.257222 -17.949817 7.741532 7.884999 -72.025964 1.618700 0.774900 -4.468000 -127.204970 -3.208448 -117.607214 24.427657 -55.112253 -4.198705 10.966385 -3.785438 122.363046 -7.125000 0.000000 0.000000 125.396135 -13.194198 -23.712957 -53.900486 55.104115 -2.720062 0.567788 -3.371468 15.727311 7.125000 0.000000 0.000000 
22.650838 11.783961 1.321521 144.101963 -70.413796 -122.017708 -72.915410 -50.158341 -29.838032 19.184476 16.198378 77.401587 9.405119 16.072664 -66.648059 0.178100 2.718300 7.495300 2.119575 61.151469 -102.425392 -19.609991 -4.473052 94.617104 -8.524734 -7.615207 -56.834365 -0.091300 1.949000 -5.364800 -62.552353 27.966966 52.705856 25.829672 11.361871 -18.914323 8.034362 8.092617 -72.485734 1.656500 0.777300 -4.712100 -126.716263 -3.161601 -119.959404 24.445407 -55.149217 -4.156079 10.711429 -3.987696 123.847103 -7.125000 0.000000 0.000000 125.119342 -12.818294 -23.479910 -53.720020 55.273875 -2.715730 0.623528 -3.371892 15.661105 7.125000 0.000000 0.000000 
22.706229 11.806405 1.315551 145.617169 -70.193548 -122.950337 -72.211710 -50.784020 -30.758636 19.183358 16.176938 77.198649 9.436574 16.119349 -66.466069 0.206000 2.922400 8.062800 2.947150 60.679790 -101.456202 -19.846026 -4.970251 96.017625 -8.564749 -8.529979 -56.433789 -0.129500 2.320000 -6.390700 -66.128889 27.647793 48.825991 27.002872 11.192522 -18.058321 8.759765 8.547082 -73.113142 1.544900 0.762100 -4.436700 -126.585865 -2.746816 -121.176604 24.634882 -55.143804 -4.291102 10.897829 -3.753502 123.807054 -7.125000 0.000000 0.000000 124.861757 -13.098727 -23.137482 -54.349693 55.209015 -2.823904 0.532821 -3.346221 15.060030 7.125000 0.000000 0.000000 
22.758219 11.827790 1.308599 146.878947 -70.266075 -123.906143 -71.654729 -51.393607 -31.414885 19.174419 16.145910 76.900009 9.486376 16.173210 -66.204224 0.225000 3.053300 8.427300 3.873683 60.237999 -100.432117 -20.165395 -5.509404 97.296098 -8.880870 -10.058390 -55.130034 -0.309500 3.576500 -9.888200 -67.537388 27.467396 47.312725 27.424421 11.060774 -17.522454 9.197499 8.761801 -73.247027 1.595300 0.720900 -4.489500 -126.588990 -2.398715 -121.491789 24.822301 -55.049750 -4.509255 11.375722 -3.436797 122.894529 -7.125000 0.000000 0.000000 124.417298 -13.308206 -22.274665 -54.883804 55.347896 -3.048627 0.338134 -3.476742 13.985579 7.125000 0.000000 0.000000 
